<?xml version="1.0" encoding="UTF-8"?>
<svg id="Layer_1" data-name="Layer 1" xmlns="http://www.w3.org/2000/svg" viewBox="0 0 275.15 275.31">
  <defs>
    <style>
      .cls-1 {
        fill: #adddff;
      }
    </style>
  </defs>
  <path class="cls-1" d="M208.07,199.37c.96,.63,1.87,.97,2.41,1.62,1.46,1.73,2.78,3.57,4.14,5.39,.76,1.01,1.29,2.32,2.25,3.04,5.54,4.12,11.16,8.13,16.79,12.14,3.31,2.35,4.49,5.62,3.65,9.4-.73,3.29-2.95,5.53-6.37,6.35-3.81,.92-6.94-.2-9.24-3.3-4.07-5.48-8.05-11.02-12.03-16.55-1.08-1.5-2.18-2.55-4.19-3.1-1.7-.47-3.07-2.3-4.47-3.66-.62-.6-.94-1.51-1.54-2.5-1.12,.82-2.07,1.44-2.95,2.16-10.7,8.8-22.85,14.78-36.23,18.15-4.64,1.17-9.47,1.62-14.24,2.21-1.91,.24-2.76,.57-1.99,2.75,.94,2.65,1.05,5.36-.74,7.87-.39,.55-.66,1.42-.56,2.07,1.1,6.8,2.23,13.59,3.47,20.36,.95,5.22-1.33,9.58-6.01,11.12-6.16,2.03-12.38-3.34-11.31-9.76,1.15-6.87,2.35-13.74,3.38-20.63,.18-1.19-.13-2.66-.72-3.73-1.22-2.23-1.29-4.4-.5-6.7,.89-2.58,.59-3.1-2.07-3.32-19.4-1.64-36.42-9-51.36-21.38-.57-.47-1.19-.88-2.07-1.53-.85,1.36-1.67,2.55-2.39,3.82-1.19,2.11-2.68,3.7-5.24,4.21-.92,.19-1.87,1.06-2.48,1.87-3.98,5.34-7.89,10.73-11.78,16.13-2.03,2.82-4.79,4.14-8.18,3.73-4.06-.5-6.69-2.99-7.6-6.9-.8-3.41,.33-6.44,3.2-8.58,5.53-4.12,11.15-8.12,16.68-12.24,.7-.52,1.3-1.43,1.54-2.27,.91-3.2,3.26-4.83,6.03-6.22,2.67-1.34,2.56-1.43,.66-3.66-8.4-9.89-14.6-21.02-17.91-33.56-1.71-6.46-2.57-13.15-3.83-19.73-.06-.31-.21-.6-.36-1.01-1.17,.32-2.29,.56-3.37,.93-2.6,.89-4.9,.31-7.44-.66-1.85-.7-4.24-.23-6.35,.06-5.76,.78-11.47,1.9-17.24,2.58-4.42,.52-8.21-2.16-9.23-6.01-1.1-4.16,.66-8.46,4.53-10.36,3.25-1.6,6.7-.64,10.04-.13,4.67,.71,9.29,1.75,13.98,2.32,1.78,.22,3.88-.07,5.47-.85,3.4-1.67,6.28,.23,9.68,.89,.38-2.33,.82-4.57,1.1-6.83,1.92-15.5,7.6-29.5,16.73-42.12,1.46-2.02,2.99-4,4.58-5.91,.94-1.13,.87-1.88-.46-2.52-3.03-1.45-5.58-3.27-6.01-7.01-.07-.58-.92-1.14-1.51-1.57-4.96-3.64-9.95-7.26-14.92-10.88-.81-.59-1.62-1.17-2.37-1.82-2.67-2.28-4.08-5.18-3.2-8.64,.92-3.61,3.19-6.13,7.14-6.76,3.66-.58,6.57,.71,8.71,3.6,4.06,5.48,7.97,11.06,12.04,16.53,.62,.83,1.76,1.25,2.64,1.89,1.62,1.19,3.36,2.27,4.79,3.66,.97,.94,1.5,2.34,2.37,3.77,2.66-1.99,5.14-3.88,7.67-5.72,10.14-7.36,21.25-12.58,33.56-15.07,4.13-.84,8.32-1.46,12.51-1.92,2.15-.24,2.61-1.15,1.91-2.95-1.07-2.73-1.05-5.29,.61-7.84,.45-.69,.66-1.75,.53-2.57-1.04-6.81-2.07-13.62-3.35-20.38-.69-3.68,.32-6.65,3.03-8.96,2.84-2.42,6.17-2.88,9.53-1.07,3.08,1.66,5.05,4.33,4.69,7.89-.53,5.28-1.48,10.51-2.3,15.75-.38,2.46-.92,4.89-1.3,7.35-.08,.51,.12,1.2,.43,1.62,2,2.7,1.9,5.61,.78,8.53-.84,2.2,.44,2.31,2.01,2.57,5.56,.92,11.18,1.61,16.63,2.97,11.68,2.9,22.15,8.43,31.74,15.66,1.52,1.15,3.03,2.32,4.55,3.47,.12,.09,.32,.06,.03,.01,2.1-1.94,3.72-4.37,5.95-5.26,2.52-1.01,4.07-2.56,5.52-4.57,3.7-5.13,7.37-10.28,11.18-15.33,4.19-5.56,11.7-4.98,15.06,1.08,1.87,3.36,.93,8.13-2.28,10.53-5.99,4.49-12.08,8.84-18.08,13.31-.74,.55-1.53,1.42-1.72,2.27-.69,3.01-2.38,5.06-5.2,6.23-.29,.12-.52,.41-.74,.65-.1,.11-.12,.3-.26,.68,13.49,15.87,21.19,34.32,22.71,55.48,1.48-.31,2.74-.73,4.02-.81,1.74-.1,3.79-.48,5.2,.25,2.38,1.23,4.65,.96,6.99,.62,5.99-.87,11.96-1.91,17.96-2.79,5.34-.79,9.55,2.51,9.92,7.65,.41,5.57-3.21,9.66-8.77,9.43-3.72-.15-7.42-.87-11.12-1.43-2.87-.43-5.71-1.25-8.59-1.41-2.13-.12-4.3,.68-6.47,.8-2.9,.15-5.82,.04-9.14,.04-.81,9.47-2.91,19.39-6.82,28.86-3.93,9.51-9.34,18.12-16.15,26.18ZM88.1,80.06c.96,.59,1.56,1.03,2.23,1.35,6.62,3.21,12.2,7.61,16.55,13.64,4.52,6.26,9.38,12.28,13.98,18.47,1.14,1.54,2.04,1.67,3.68,.71,1.84-1.08,3.87-2.03,5.93-2.46,1.77-.37,2.22-1.11,2.03-2.66-.47-3.96-.87-7.92-1.42-11.87-.69-4.93-1.68-9.83-2.22-14.77-.58-5.42,.37-10.72,1.73-15.99,1.21-4.71,1.07-4.7-3.74-4.02-13.03,1.82-24.75,6.75-35.2,14.73-1.15,.88-2.26,1.83-3.56,2.88Zm55.96-18.23c-.19,.47-.32,.64-.29,.77,.1,.48,.24,.95,.39,1.42,1.89,5.81,3.07,11.74,2.31,17.87-1.12,9.05-2.4,18.09-3.5,27.14-.09,.79,.5,2.12,1.16,2.45,2.42,1.23,4.96,2.24,7.53,3.11,.69,.23,2-.04,2.42-.57,4.59-5.79,9.28-11.52,13.51-17.58,3.75-5.37,8.31-9.67,13.95-12.89,1.85-1.06,3.7-2.11,5.88-3.34-12.76-10.97-27.17-16.79-43.35-18.39ZM61.7,131.67c1.51-.33,2.23-.45,2.94-.64,5.72-1.52,11.45-2.85,17.45-1.81,2.54,.44,5.08,.85,7.64,1.15,6.43,.76,12.89,1.38,19.31,2.22,1.53,.2,2.08-.31,2.54-1.6,.84-2.33,1.95-4.57,2.68-6.93,.25-.8,.05-2.26-.51-2.71-4.97-4.03-9.87-8.19-15.16-11.77-7.18-4.85-13.18-10.62-16.98-18.5-1.44-3-1.7-3-3.83-.28-7.31,9.3-12.08,19.79-14.66,31.29-.66,2.95-.89,6-1.41,9.58Zm151.49-.08c.05-.6,.15-1.08,.12-1.55-.4-7.04-2.3-13.73-4.82-20.27-2.75-7.12-6.69-13.55-11.33-19.57-1.56-2.03-1.9-1.85-3.08,.37-3.22,6.06-7,11.65-12.67,15.81-6.64,4.87-13.14,9.92-19.65,14.97-.58,.45-1.25,1.62-1.05,2.12,1.25,3.12,2.74,6.15,4.18,9.25,1.11-.13,2.26-.26,3.4-.41,6.83-.9,13.65-1.96,20.51-2.66,4.11-.42,8.3-.63,12.4-.31,3.92,.31,7.77,1.42,11.98,2.24Zm-81.2,81.7c-.23-1.02-.51-2.04-.7-3.08-.85-4.71-2.37-9.42-2.34-14.13,.03-5.93,1.33-11.85,2.08-17.77,.51-4.04,1.05-8.07,1.43-12.12,.06-.68-.47-1.82-1.04-2.08-2.47-1.14-5.02-2.12-7.6-2.95-.7-.23-2-.01-2.41,.5-3.68,4.5-7.31,9.06-10.8,13.72-4.29,5.71-8.05,11.87-14.39,15.69-2.46,1.48-4.88,3.02-7.32,4.52,4.46,7.54,34.85,20.06,43.1,17.7ZM61.72,143.94c.5,3.59,.7,6.64,1.38,9.57,2.67,11.64,7.51,22.28,15.01,31.65,1.67,2.09,1.85,2.11,3.11-.23,3.05-5.7,6.77-10.85,11.99-14.8,6.69-5.06,13.34-10.18,20.04-15.23,1.35-1.02,2.08-1.87,1.03-3.7-1.1-1.91-1.6-4.16-2.59-6.15-.41-.81-1.48-1.93-2.16-1.86-6.86,.64-13.79,1.06-20.53,2.39-7.91,1.56-15.62,1.72-23.37-.5-1.07-.31-2.14-.62-3.9-1.14Zm91.48,16.61c-3.35,1.28-6.23,2.28-9.02,3.51-.61,.27-1.31,1.35-1.25,1.99,.29,3.13,.84,6.25,1.28,9.37,.74,5.26,1.58,10.51,2.17,15.79,.77,6.96-.04,13.75-2.58,20.32-.69,1.78-.05,2.42,1.93,2.09,.98-.16,1.95-.44,2.94-.57,13.87-1.84,26.08-7.49,36.98-16.14,.4-.32,.62-.86,1-1.39-6.73-3.79-13.04-7.76-17.39-14.14-1.87-2.75-3.83-5.44-5.88-8.07-3.41-4.38-6.93-8.69-10.18-12.75Zm59.95-16.56c-1.23,.3-2.25,.54-3.28,.79-5.49,1.32-10.94,2.73-16.7,1.94-8.88-1.22-17.78-2.26-26.66-3.46-1.56-.21-2.26,.34-2.78,1.72-.89,2.31-2.03,4.52-2.85,6.85-.23,.64,0,1.89,.49,2.27,5.85,4.64,11.6,9.46,17.75,13.67,6.64,4.54,11.62,10.32,15.26,17.39,.31,.6,.81,1.09,1.25,1.68,9.95-10.43,17.92-30.34,17.53-42.84Zm-58.09-6.38c.38-9.79-8.29-17.56-17.4-17.4-10.59,.19-17.82,8.5-17.49,18.21,.3,8.96,7.15,16.89,17.79,16.87,10.24-.02,17.68-8.93,17.1-17.69Z"/>
  <path class="cls-1" d="M147.31,137.84c.03-5.5-4.28-9.84-9.78-9.71-5.73,.13-9.33,4.17-9.62,9.45-.29,5.41,4.23,9.78,9.77,9.78,5.59,0,9.61-3.96,9.63-9.52Z"/>
  <path class="cls-1" d="M147.31,137.84c-.03,5.56-4.04,9.53-9.63,9.52-5.54,0-10.06-4.37-9.77-9.78,.29-5.28,3.89-9.31,9.62-9.45,5.5-.13,9.81,4.21,9.78,9.71Z"/>
</svg>